<svg width="955" height="1081" viewBox="0 0 955 1081" fill="none" xmlns="http://www.w3.org/2000/svg">
<mask id="mask0_1285_2118" style="mask-type:alpha" maskUnits="userSpaceOnUse" x="0" y="0" width="955" height="1081">
<rect width="955" height="1081" fill="#D9D9D9"/>
</mask>
<g mask="url(#mask0_1285_2118)">
<path fill-rule="evenodd" clip-rule="evenodd" d="M204.139 1000.59C202.823 999.586 200.94 999.835 199.933 1001.15L186.75 1018.35L179.702 1009.96C177.571 1007.43 173.786 1007.1 171.248 1009.23C168.711 1011.36 168.382 1015.14 170.513 1017.68L183.377 1033C185.508 1035.53 189.293 1035.86 191.83 1033.73C194.044 1031.87 194.577 1028.75 193.26 1026.3L207.87 1007.23C208.878 1005.92 208.629 1004.03 207.314 1003.03L204.139 1000.59Z" fill="#808080"/>
<path fill-rule="evenodd" clip-rule="evenodd" d="M233.64 1006.87C232.011 1006.57 230.444 1007.64 230.141 1009.27L226.657 1027.96L216.722 1023.73C213.673 1022.43 210.149 1023.85 208.85 1026.9C207.552 1029.94 208.97 1033.47 212.019 1034.77L230.419 1042.61C233.468 1043.9 236.992 1042.49 238.291 1039.44C239.447 1036.72 238.448 1033.63 236.063 1032.07L239.971 1011.1C240.275 1009.48 239.201 1007.91 237.572 1007.61L233.64 1006.87Z" fill="#808080"/>
<path d="M296.555 852.73C300.115 850.568 304.603 853.452 304.116 857.589L284.596 1023.26C284.234 1026.33 281.189 1028.34 278.217 1027.47L107.707 977.215C103.542 975.987 102.814 970.399 106.525 968.145L296.555 852.73Z" fill="#F26363"/>
<ellipse cx="229.187" cy="931.701" rx="8.53125" ry="15.4375" transform="rotate(16.4218 229.187 931.701)" fill="white"/>
<ellipse cx="222.903" cy="935.779" rx="4.46875" ry="8.125" transform="rotate(16.4218 222.903 935.779)" fill="black"/>
<ellipse cx="251.789" cy="938.362" rx="8.53125" ry="15.4375" transform="rotate(16.4218 251.789 938.362)" fill="white"/>
<ellipse cx="246.054" cy="943.448" rx="4.46875" ry="8.125" transform="rotate(16.4218 246.054 943.448)" fill="black"/>
<path fill-rule="evenodd" clip-rule="evenodd" d="M219.66 962.602C218.363 962.607 217.412 963.832 217.91 965.03C220.488 971.227 226.613 975.574 233.741 975.545C240.869 975.516 246.959 971.12 249.485 964.901C249.974 963.7 249.013 962.483 247.716 962.488L219.66 962.602Z" fill="#B84949"/>
<circle cx="470.5" cy="697.5" r="131.5" transform="rotate(-125.11 470.5 697.5)" fill="url(#paint0_linear_1285_2118)"/>
<circle cx="607" cy="1027" r="179" fill="url(#paint1_linear_1285_2118)"/>
<circle cx="848.5" cy="526.5" r="229.5" fill="url(#paint2_linear_1285_2118)"/>
<g filter="url(#filter0_bdi_1285_2118)">
<rect x="607" y="678" width="355" height="355" rx="177.5" fill="#D9D9D9" fill-opacity="0.1" shape-rendering="crispEdges"/>
</g>
<g filter="url(#filter1_bdi_1285_2118)">
<rect x="208" y="678" width="225" height="225" rx="112.5" fill="#D9D9D9" fill-opacity="0.1" shape-rendering="crispEdges"/>
</g>
<path fill-rule="evenodd" clip-rule="evenodd" d="M833.917 292.002C835.319 291.118 837.171 291.538 838.055 292.939L847.241 307.507L853.621 301.183C855.549 299.272 858.663 299.285 860.574 301.214C862.486 303.143 862.472 306.256 860.544 308.168L848.902 319.707C846.974 321.618 843.86 321.605 841.949 319.676C840.28 317.993 840.078 315.408 841.335 313.506L831.123 297.31C830.239 295.909 830.659 294.056 832.06 293.173L833.917 292.002Z" fill="#808080"/>
<path fill-rule="evenodd" clip-rule="evenodd" d="M806.203 290.333C807.299 291.576 807.18 293.472 805.937 294.567L794.657 304.513L801.809 309.725C804.004 311.324 804.486 314.4 802.887 316.595C801.287 318.79 798.211 319.272 796.017 317.673L782.771 308.019C780.576 306.419 780.093 303.344 781.693 301.149C783.117 299.194 785.713 298.598 787.814 299.621L800.517 288.42C801.759 287.325 803.655 287.444 804.751 288.687L806.203 290.333Z" fill="#808080"/>
<path d="M866.4 169.763C901.295 202.36 914.389 249.658 886.582 279.425C858.774 309.193 782.462 294.562 747.568 261.965C712.674 229.369 732.411 191.15 760.218 161.383C788.026 131.615 831.506 137.166 866.4 169.763Z" fill="#53CAE5"/>
<ellipse cx="801.583" cy="213.454" rx="8.6051" ry="15.5711" fill="white"/>
<ellipse cx="801.583" cy="213.455" rx="4.50743" ry="8.19533" fill="black"/>
<ellipse cx="822.892" cy="213.454" rx="8.6051" ry="15.5711" fill="white"/>
<ellipse cx="822.892" cy="213.455" rx="4.50743" ry="8.19533" fill="black"/>
<path fill-rule="evenodd" clip-rule="evenodd" d="M793.361 237.588C792.066 237.639 791.158 238.896 791.696 240.076C794.509 246.244 800.843 250.418 808.035 250.137C815.227 249.855 821.216 245.199 823.538 238.83C823.982 237.612 822.979 236.429 821.684 236.48L793.361 237.588Z" fill="#357A8A"/>
<path fill-rule="evenodd" clip-rule="evenodd" d="M473.801 554.632C472.391 554.632 471.247 555.775 471.247 557.186V567.234L465.783 566.022C464.13 565.655 462.493 566.697 462.127 568.35C461.76 570.002 462.802 571.639 464.455 572.006L474.429 574.219C476.081 574.586 477.718 573.543 478.085 571.891C478.405 570.449 477.651 569.018 476.356 568.434V557.186C476.356 555.775 475.212 554.632 473.801 554.632Z" fill="#808080"/>
<path fill-rule="evenodd" clip-rule="evenodd" d="M484.525 552.865C483.626 553.951 483.777 555.561 484.864 556.461L491.558 562.004L487.205 565.388C485.868 566.427 485.627 568.353 486.666 569.689C487.705 571.025 489.631 571.266 490.967 570.227L499.033 563.956C500.369 562.917 500.61 560.992 499.571 559.656C498.645 558.465 497.016 558.144 495.726 558.823L488.121 552.526C487.035 551.627 485.425 551.778 484.525 552.865Z" fill="#808080"/>
<path d="M443.229 467.63C444.434 465.566 446.932 464.644 449.189 465.429L516.159 488.723C518.788 489.637 520.164 492.524 519.219 495.143L500.621 546.68C500.067 548.215 498.799 549.383 497.224 549.809L449.205 562.802C446.929 563.417 444.533 562.359 443.454 560.263L419.262 513.257C418.48 511.738 418.528 509.924 419.39 508.448L443.229 467.63Z" fill="#FFD43A"/>
<ellipse cx="461.934" cy="507.752" rx="5.3636" ry="9.70556" fill="white"/>
<ellipse cx="461.934" cy="503.155" rx="2.8095" ry="5.10819" fill="black"/>
<ellipse cx="475.735" cy="507.752" rx="5.3636" ry="9.70556" fill="white"/>
<ellipse cx="475.734" cy="503.155" rx="2.8095" ry="5.10819" fill="black"/>
<path d="M464.834 529.105C463.609 528.173 463.853 526.264 465.273 525.669L472.943 522.458C474.364 521.863 475.895 523.029 475.7 524.556L474.646 532.804C474.451 534.332 472.675 535.075 471.45 534.142L464.834 529.105Z" fill="#A8A44C"/>
</g>
<defs>
<filter id="filter0_bdi_1285_2118" x="587" y="658" width="395" height="399" filterUnits="userSpaceOnUse" color-interpolation-filters="sRGB">
<feFlood flood-opacity="0" result="BackgroundImageFix"/>
<feGaussianBlur in="BackgroundImageFix" stdDeviation="10"/>
<feComposite in2="SourceAlpha" operator="in" result="effect1_backgroundBlur_1285_2118"/>
<feColorMatrix in="SourceAlpha" type="matrix" values="0 0 0 0 0 0 0 0 0 0 0 0 0 0 0 0 0 0 127 0" result="hardAlpha"/>
<feOffset dy="4"/>
<feGaussianBlur stdDeviation="10"/>
<feComposite in2="hardAlpha" operator="out"/>
<feColorMatrix type="matrix" values="0 0 0 0 0 0 0 0 0 0 0 0 0 0 0 0 0 0 0.1 0"/>
<feBlend mode="normal" in2="effect1_backgroundBlur_1285_2118" result="effect2_dropShadow_1285_2118"/>
<feBlend mode="normal" in="SourceGraphic" in2="effect2_dropShadow_1285_2118" result="shape"/>
<feColorMatrix in="SourceAlpha" type="matrix" values="0 0 0 0 0 0 0 0 0 0 0 0 0 0 0 0 0 0 127 0" result="hardAlpha"/>
<feOffset dx="-28.4" dy="28.4"/>
<feGaussianBlur stdDeviation="10"/>
<feComposite in2="hardAlpha" operator="arithmetic" k2="-1" k3="1"/>
<feColorMatrix type="matrix" values="0 0 0 0 1 0 0 0 0 1 0 0 0 0 1 0 0 0 0.1 0"/>
<feBlend mode="normal" in2="shape" result="effect3_innerShadow_1285_2118"/>
</filter>
<filter id="filter1_bdi_1285_2118" x="188" y="658" width="265" height="269" filterUnits="userSpaceOnUse" color-interpolation-filters="sRGB">
<feFlood flood-opacity="0" result="BackgroundImageFix"/>
<feGaussianBlur in="BackgroundImageFix" stdDeviation="10"/>
<feComposite in2="SourceAlpha" operator="in" result="effect1_backgroundBlur_1285_2118"/>
<feColorMatrix in="SourceAlpha" type="matrix" values="0 0 0 0 0 0 0 0 0 0 0 0 0 0 0 0 0 0 127 0" result="hardAlpha"/>
<feOffset dy="4"/>
<feGaussianBlur stdDeviation="10"/>
<feComposite in2="hardAlpha" operator="out"/>
<feColorMatrix type="matrix" values="0 0 0 0 0 0 0 0 0 0 0 0 0 0 0 0 0 0 0.1 0"/>
<feBlend mode="normal" in2="effect1_backgroundBlur_1285_2118" result="effect2_dropShadow_1285_2118"/>
<feBlend mode="normal" in="SourceGraphic" in2="effect2_dropShadow_1285_2118" result="shape"/>
<feColorMatrix in="SourceAlpha" type="matrix" values="0 0 0 0 0 0 0 0 0 0 0 0 0 0 0 0 0 0 127 0" result="hardAlpha"/>
<feOffset dx="-28.4" dy="28.4"/>
<feGaussianBlur stdDeviation="10"/>
<feComposite in2="hardAlpha" operator="arithmetic" k2="-1" k3="1"/>
<feColorMatrix type="matrix" values="0 0 0 0 1 0 0 0 0 1 0 0 0 0 1 0 0 0 0.1 0"/>
<feBlend mode="normal" in2="shape" result="effect3_innerShadow_1285_2118"/>
</filter>
<linearGradient id="paint0_linear_1285_2118" x1="519.447" y1="582.437" x2="402.558" y2="809.275" gradientUnits="userSpaceOnUse">
<stop stop-color="#0E9E9E"/>
<stop offset="0.96" stop-color="#0E9E9E" stop-opacity="0.19"/>
</linearGradient>
<linearGradient id="paint1_linear_1285_2118" x1="673.628" y1="870.375" x2="514.517" y2="1179.15" gradientUnits="userSpaceOnUse">
<stop stop-color="#0E9E9E"/>
<stop offset="0.96" stop-color="#0E9E9E" stop-opacity="0.19"/>
</linearGradient>
<linearGradient id="paint2_linear_1285_2118" x1="933.925" y1="325.687" x2="729.925" y2="721.575" gradientUnits="userSpaceOnUse">
<stop stop-color="#0E9E9E"/>
<stop offset="0.96" stop-color="#0E9E9E" stop-opacity="0.19"/>
</linearGradient>
</defs>
</svg>
